<svg width="18" height="18" viewBox="0 0 18 18" fill="none" xmlns="http://www.w3.org/2000/svg">
<path fill-rule="evenodd" clip-rule="evenodd" d="M9 18C9.46599 18 9.84375 17.6222 9.84375 17.1562V9.84375L17.1562 9.84375C17.6222 9.84375 18 9.46599 18 9C18 8.53401 17.6222 8.15625 17.1562 8.15625L9.84375 8.15625V0.84375C9.84375 0.37776 9.46599 0 9 0C8.53401 0 8.15625 0.37776 8.15625 0.84375V8.15625L0.84375 8.15625C0.37776 8.15625 0 8.53401 0 9C0 9.46599 0.37776 9.84375 0.84375 9.84375L8.15625 9.84375V17.1562C8.15625 17.6222 8.53401 18 9 18Z" fill="white"/>
</svg>
